<?xml version="1.0" encoding="utf-8"?>
<!-- Generator: Adobe Illustrator 17.0.0, SVG Export Plug-In . SVG Version: 6.00 Build 0)  -->
<!DOCTYPE svg PUBLIC "-//W3C//DTD SVG 1.1//EN" "http://www.w3.org/Graphics/SVG/1.1/DTD/svg11.dtd">
<svg version="1.1" id="Layer_1" xmlns="http://www.w3.org/2000/svg" xmlns:xlink="http://www.w3.org/1999/xlink" x="0px" y="0px"
	 width="482px" height="180px" viewBox="0 0 482 180" enable-background="new 0 0 482 180" xml:space="preserve">
<path fill="#FFFFFF" d="M19.864,149.752v-0.973c0.669-0.241,1.121-0.481,1.355-0.722c0.234-0.24,0.351-0.636,0.351-1.189
	c0-0.192-0.017-0.396-0.05-0.612c-0.034-0.217-0.062-0.385-0.084-0.505l-10.778-30.1c-0.447-1.273-0.893-2.145-1.339-2.613
	c-0.447-0.469-1.094-0.835-1.942-1.099v-0.937h12.619v0.937c-0.669,0.241-1.127,0.481-1.372,0.721
	c-0.246,0.241-0.368,0.541-0.368,0.901c0,0.121,0.027,0.283,0.084,0.487c0.055,0.204,0.151,0.486,0.284,0.847l7.598,23.178
	l7.531-23.178c0.045-0.12,0.078-0.282,0.101-0.486c0.022-0.204,0.033-0.402,0.033-0.595c0-0.528-0.106-0.907-0.318-1.136
	c-0.213-0.228-0.676-0.474-1.389-0.739v-0.937h13.388v0.937c-0.669,0.241-1.127,0.481-1.372,0.721
	c-0.246,0.241-0.368,0.541-0.368,0.901c0,0.121,0.028,0.283,0.084,0.487c0.055,0.204,0.151,0.486,0.284,0.847l7.464,22.602
	l7.397-22.602c0.044-0.12,0.078-0.282,0.101-0.486c0.022-0.204,0.033-0.402,0.033-0.595c0-0.528-0.106-0.907-0.318-1.136
	c-0.212-0.228-0.675-0.474-1.389-0.739v-0.937h11.982v0.937c-0.87,0.288-1.518,0.667-1.941,1.136
	c-0.424,0.469-0.848,1.328-1.272,2.577l-10.543,30.1c-0.045,0.144-0.078,0.313-0.101,0.505c-0.023,0.192-0.033,0.396-0.033,0.612
	c0,0.553,0.111,0.95,0.334,1.189c0.223,0.241,0.68,0.481,1.372,0.722v0.973H45.401v-0.973c0.714-0.241,1.188-0.487,1.423-0.739
	c0.234-0.252,0.362-0.643,0.385-1.172c0-0.144-0.017-0.3-0.051-0.469c-0.033-0.167-0.084-0.372-0.151-0.612l-8.301-25.558
	l-8.368,25.522c-0.045,0.144-0.078,0.313-0.101,0.505c-0.022,0.192-0.033,0.396-0.033,0.612c0,0.529,0.111,0.914,0.334,1.154
	c0.223,0.241,0.703,0.493,1.439,0.757v0.973H19.864V149.752z"/>
<path fill="#FFFFFF" d="M74.822,147.374l3.213-7.895l1.037,0.469c-0.022,0.049-0.045,0.121-0.067,0.217
	c-0.045,0.217-0.067,0.361-0.067,0.433c0,0.793,1.199,1.658,3.598,2.595c2.398,0.936,4.847,1.405,7.346,1.405
	c2.544,0,4.563-0.371,6.058-1.117c1.495-0.745,2.242-1.73,2.242-2.955c0-1.754-2.522-2.776-7.564-3.065
	c-2.008-0.12-3.593-0.228-4.753-0.324c-3.481-0.336-6.081-1.249-7.799-2.74c-1.718-1.49-2.577-3.58-2.577-6.272
	c0-3.245,1.283-5.852,3.849-7.822s5.968-2.956,10.208-2.956c2.9,0,5.812,0.589,8.736,1.766c0.49,0.193,0.781,0.289,0.87,0.289
	c0.29,0,0.864,0.247,1.724,0.739c0.859,0.493,1.523,0.739,1.992,0.739c0.089,0,0.234-0.054,0.435-0.162s0.39-0.246,0.569-0.414
	l0.769,0.36l-3.648,7.967l-1.004-0.577c0.022-0.024,0.038-0.06,0.05-0.108c0.011-0.048,0.017-0.132,0.017-0.252
	c0-0.937-1.138-1.934-3.414-2.992s-4.619-1.586-7.029-1.586c-2.232,0-4.033,0.331-5.405,0.991c-1.372,0.662-2.058,1.508-2.058,2.542
	c0,1.61,1.975,2.523,5.924,2.74c3.012,0.168,5.444,0.433,7.296,0.793c3.235,0.625,5.657,1.73,7.263,3.316
	c1.607,1.586,2.41,3.629,2.41,6.128c0,3.197-1.395,5.804-4.184,7.823c-2.789,2.018-6.415,3.028-10.878,3.028
	c-4.217,0-8.256-0.949-12.116-2.848c-0.736-0.361-1.183-0.541-1.339-0.541c-0.223,0.024-0.385,0.072-0.486,0.144
	c-0.101,0.072-0.184,0.217-0.251,0.432L74.822,147.374z"/>
<path fill="#FFFFFF" d="M148.089,136.379l0.736-0.505l5.021,8.327l-0.769,0.541c-0.268-0.24-0.469-0.402-0.603-0.486
	c-0.134-0.085-0.268-0.127-0.401-0.127c-0.268,0-0.993,0.385-2.176,1.154c-5.489,3.461-10.8,5.191-15.932,5.191
	c-5.98,0-10.951-1.916-14.911-5.749c-3.961-3.833-5.941-8.634-5.941-14.401c0-5.888,2.014-10.718,6.042-14.491
	c4.027-3.773,9.265-5.66,15.715-5.66c3.302,0,6.632,0.583,9.991,1.749c3.358,1.166,5.138,1.748,5.339,1.748
	c0.268-0.024,0.552-0.054,0.854-0.09s0.641-0.078,1.021-0.127l0.736,0.505l-5.054,8.76l-0.837-0.505
	c0.022-0.048,0.039-0.096,0.051-0.144c0.011-0.048,0.017-0.12,0.017-0.217c0-1.081-1.322-2.199-3.966-3.352
	c-2.645-1.153-5.428-1.73-8.351-1.73c-4.016,0-7.319,1.243-9.907,3.731c-2.589,2.487-3.883,5.618-3.883,9.39
	c0,4.013,1.289,7.258,3.866,9.733c2.577,2.475,5.952,3.713,10.125,3.713c3.056,0,6.069-0.714,9.037-2.144
	c2.967-1.43,4.452-2.59,4.452-3.479c0-0.168-0.023-0.366-0.067-0.595C148.245,136.889,148.178,136.644,148.089,136.379z"/>
<path fill="#FFFFFF" d="M186.814,121.022c0-0.721-0.106-1.219-0.318-1.496c-0.212-0.276-0.653-0.486-1.322-0.631v-0.973h10.51
	l-0.033,0.973c-0.648,0.144-1.077,0.343-1.289,0.595c-0.213,0.253-0.33,0.763-0.352,1.532l-0.067,16.834
	c0,4.567-1.166,7.799-3.498,9.697c-2.332,1.899-6.276,2.848-11.832,2.848c-5.444,0-9.333-0.955-11.665-2.866
	c-2.332-1.91-3.498-5.137-3.498-9.679v-16.834c0-0.697-0.117-1.189-0.351-1.478c-0.234-0.288-0.686-0.504-1.355-0.649v-0.973h10.476
	v0.973c-0.647,0.144-1.083,0.355-1.305,0.631c-0.223,0.277-0.334,0.775-0.334,1.496v15.429c0,2.836,0.625,4.848,1.874,6.038
	c1.25,1.189,3.324,1.784,6.225,1.784c2.879,0,4.954-0.63,6.226-1.892s1.908-3.359,1.908-6.291V121.022z"/>
<path fill="#FFFFFF" d="M227.246,117.922c3.437,0,6.103,0.727,8,2.181c1.896,1.454,2.845,3.467,2.845,6.038
	c0,1.418-0.341,2.668-1.021,3.749s-1.713,2.019-3.096,2.811c1.741,0.937,3.012,2.031,3.816,3.281s1.205,2.764,1.205,4.542
	c0,2.907-1.083,5.173-3.247,6.795s-5.221,2.433-9.17,2.433h-20.016v-0.973c0.647-0.144,1.082-0.355,1.305-0.631
	c0.223-0.276,0.334-0.775,0.334-1.495v-25.63c0-0.721-0.112-1.219-0.334-1.496c-0.223-0.276-0.659-0.486-1.305-0.631v-0.973h20.684
	L227.246,117.922L227.246,117.922z M225.07,123.473h-9.739v6.561h10.543c1.807,0,3.152-0.27,4.033-0.811
	c0.882-0.541,1.322-1.376,1.322-2.505c0-1.177-0.457-2.013-1.372-2.505C228.941,123.72,227.347,123.473,225.07,123.473z
	 M224.501,135.586h-9.171v8.615h8.97c2.967,0,5.025-0.324,6.174-0.973s1.725-1.766,1.725-3.353c0-1.514-0.598-2.607-1.791-3.28
	C229.215,135.923,227.246,135.586,224.501,135.586z"/>
<path fill="#FFFFFF" d="M276.481,117.922c0.736,0,1.211-0.108,1.422-0.324c0.212-0.217,0.396-0.673,0.552-1.37h0.904v9.913h-0.904
	c-0.134-0.721-0.329-1.201-0.586-1.442c-0.256-0.24-0.719-0.361-1.389-0.361h-18.107v6.381h11.112c0.714,0,1.183-0.114,1.406-0.343
	c0.222-0.228,0.413-0.703,0.569-1.424l0.904-0.036V138h-0.904c-0.134-0.697-0.329-1.165-0.586-1.406
	c-0.256-0.24-0.719-0.36-1.389-0.36h-11.112v7.173h18.844c0.714,0,1.183-0.108,1.406-0.324c0.223-0.217,0.423-0.697,0.602-1.442
	h0.87v9.949h-0.87c-0.134-0.721-0.335-1.207-0.602-1.46c-0.268-0.252-0.736-0.378-1.406-0.378h-27.68v-0.973
	c0.67-0.144,1.121-0.361,1.356-0.65c0.234-0.288,0.351-0.78,0.351-1.477v-25.63c0-0.697-0.117-1.189-0.351-1.478
	c-0.235-0.288-0.686-0.504-1.356-0.649v-0.973L276.481,117.922L276.481,117.922z"/>
<path fill="#0095DA" d="M312.864,117.85c-0.692,0-1.155,0.115-1.39,0.343c-0.234,0.229-0.43,0.703-0.586,1.424h-0.904v-10.454h0.871
	c0.156,0.721,0.368,1.208,0.636,1.46c0.268,0.253,0.725,0.379,1.372,0.379h30.157c0.691,0,1.154-0.12,1.389-0.36
	c0.234-0.24,0.429-0.733,0.586-1.478h0.904v10.526h-0.904c-0.135-0.721-0.335-1.208-0.602-1.46
	c-0.268-0.252-0.726-0.379-1.372-0.379h-11.179v28.803c0,0.745,0.106,1.243,0.318,1.495s0.653,0.463,1.322,0.631v0.973h-11.146
	v-0.973c0.67-0.192,1.111-0.426,1.322-0.703c0.212-0.276,0.34-0.762,0.385-1.46V117.85H312.864z"/>
<path fill="#0095DA" d="M380.206,117.922c0.736,0,1.211-0.108,1.422-0.324c0.212-0.217,0.396-0.673,0.552-1.37h0.904v9.913h-0.904
	c-0.134-0.721-0.329-1.201-0.586-1.442c-0.256-0.24-0.719-0.361-1.389-0.361h-18.107v6.381h11.112c0.714,0,1.183-0.114,1.406-0.343
	c0.222-0.228,0.413-0.703,0.569-1.424l0.904-0.036V138h-0.904c-0.134-0.697-0.329-1.165-0.586-1.406
	c-0.256-0.24-0.719-0.36-1.389-0.36h-11.112v7.173h18.844c0.714,0,1.183-0.108,1.406-0.324c0.223-0.217,0.423-0.697,0.602-1.442
	h0.87v9.949h-0.87c-0.134-0.721-0.335-1.207-0.602-1.46c-0.268-0.252-0.736-0.378-1.406-0.378h-27.68v-0.973
	c0.67-0.144,1.121-0.361,1.356-0.65c0.234-0.288,0.351-0.78,0.351-1.477v-25.63c0-0.697-0.117-1.189-0.351-1.478
	c-0.235-0.288-0.686-0.504-1.356-0.649v-0.973L380.206,117.922L380.206,117.922z"/>
<path fill="#0095DA" d="M421.307,127.907l-0.736-0.433c0.022-0.048,0.039-0.09,0.05-0.126s0.017-0.102,0.017-0.198
	c0-0.841-1.055-1.724-3.163-2.649s-4.324-1.388-6.644-1.388c-3.258,0-5.902,0.98-7.933,2.938c-2.031,1.959-3.046,4.524-3.046,7.696
	c0,3.148,0.999,5.666,2.996,7.552c1.997,1.887,4.658,2.829,7.983,2.829c2.543,0,4.987-0.564,7.33-1.694s3.514-2.067,3.514-2.812
	c0-0.048-0.022-0.174-0.067-0.378c-0.044-0.204-0.09-0.415-0.134-0.631l0.804-0.36l4.518,6.993l-0.736,0.432
	c-0.223-0.167-0.391-0.282-0.502-0.343c-0.112-0.06-0.223-0.089-0.334-0.089c-0.246,0-0.915,0.337-2.008,1.009
	c-4.575,2.811-9.004,4.217-13.288,4.217c-4.998,0-9.16-1.597-12.484-4.794c-3.325-3.196-4.987-7.149-4.987-11.859
	c0-4.879,1.696-8.892,5.087-12.04c3.392-3.148,7.777-4.722,13.154-4.722c2.745,0,5.533,0.481,8.368,1.442
	c2.833,0.961,4.362,1.442,4.586,1.442c0.222,0,0.457-0.018,0.703-0.054c0.245-0.036,0.524-0.09,0.837-0.162l0.804,0.433
	L421.307,127.907z"/>
<path fill="#0095DA" d="M442.694,146.653c0,0.697,0.117,1.189,0.352,1.477c0.234,0.289,0.686,0.505,1.355,0.65v0.973h-10.476v-0.973
	c0.647-0.144,1.082-0.355,1.305-0.631s0.335-0.775,0.335-1.495v-25.63c0-0.721-0.112-1.219-0.335-1.496
	c-0.223-0.276-0.658-0.486-1.305-0.631v-0.973h10.476v0.973c-0.669,0.144-1.121,0.36-1.355,0.649
	c-0.235,0.289-0.352,0.781-0.352,1.478v8.579h16.535v-8.579c0-0.697-0.117-1.189-0.351-1.478c-0.235-0.288-0.698-0.504-1.39-0.649
	v-0.973h10.51v0.973c-0.669,0.144-1.11,0.355-1.322,0.631c-0.212,0.277-0.318,0.775-0.318,1.496v25.63
	c0,0.721,0.106,1.219,0.318,1.495c0.213,0.276,0.653,0.487,1.322,0.631v0.973h-10.51v-0.973c0.692-0.144,1.155-0.361,1.39-0.65
	c0.234-0.288,0.351-0.78,0.351-1.477v-10.779h-16.535V146.653z"/>
<g>
	<path fill="#FFFFFF" d="M258.469,171.559c0,0.704-0.13,1.331-0.389,1.881s-0.619,1.016-1.079,1.399
		c-0.461,0.384-1.003,0.672-1.626,0.866c-0.624,0.193-1.295,0.29-2.015,0.29c-0.504,0-0.97-0.042-1.399-0.128
		c-0.431-0.085-0.813-0.19-1.151-0.313c-0.336-0.124-0.619-0.251-0.847-0.383c-0.229-0.132-0.387-0.244-0.477-0.337
		c-0.089-0.093-0.154-0.211-0.196-0.354c-0.043-0.144-0.064-0.336-0.064-0.575c0-0.17,0.007-0.311,0.023-0.423
		c0.016-0.113,0.039-0.204,0.07-0.273c0.031-0.07,0.07-0.118,0.116-0.145c0.046-0.027,0.1-0.041,0.163-0.041
		c0.109,0,0.261,0.065,0.459,0.197c0.196,0.132,0.451,0.274,0.76,0.43c0.309,0.155,0.683,0.3,1.121,0.436
		c0.437,0.135,0.942,0.203,1.515,0.203c0.434,0,0.831-0.058,1.19-0.174c0.361-0.116,0.67-0.281,0.929-0.493
		c0.26-0.213,0.459-0.475,0.599-0.784c0.139-0.309,0.209-0.662,0.209-1.057c0-0.425-0.097-0.79-0.29-1.091
		c-0.193-0.302-0.449-0.567-0.766-0.796c-0.318-0.228-0.68-0.437-1.085-0.627c-0.407-0.189-0.823-0.382-1.249-0.581
		c-0.425-0.196-0.84-0.416-1.242-0.656s-0.762-0.522-1.08-0.848c-0.318-0.325-0.575-0.706-0.772-1.144
		c-0.198-0.437-0.297-0.962-0.297-1.573c0-0.627,0.114-1.186,0.343-1.678c0.228-0.491,0.545-0.904,0.952-1.236
		c0.405-0.333,0.89-0.586,1.45-0.761c0.562-0.173,1.167-0.261,1.818-0.261c0.332,0,0.667,0.029,1.005,0.088
		c0.336,0.057,0.653,0.135,0.952,0.232c0.298,0.096,0.563,0.205,0.795,0.325c0.232,0.119,0.385,0.216,0.459,0.289
		c0.073,0.074,0.121,0.132,0.145,0.175c0.023,0.042,0.042,0.096,0.058,0.163c0.016,0.065,0.027,0.145,0.035,0.237
		c0.007,0.093,0.012,0.213,0.012,0.36c0,0.139-0.006,0.263-0.017,0.372c-0.013,0.109-0.03,0.199-0.053,0.272
		c-0.023,0.074-0.056,0.129-0.099,0.163c-0.042,0.036-0.091,0.053-0.145,0.053c-0.086,0-0.219-0.054-0.4-0.163
		c-0.183-0.109-0.405-0.23-0.668-0.365c-0.263-0.136-0.575-0.26-0.934-0.372c-0.361-0.113-0.765-0.169-1.214-0.169
		c-0.418,0-0.782,0.056-1.091,0.169c-0.309,0.112-0.565,0.261-0.766,0.447c-0.202,0.186-0.353,0.406-0.453,0.662
		c-0.1,0.255-0.151,0.527-0.151,0.813c0,0.418,0.097,0.778,0.29,1.08s0.451,0.569,0.772,0.801c0.322,0.232,0.687,0.445,1.098,0.639
		c0.411,0.193,0.829,0.389,1.254,0.586c0.425,0.198,0.843,0.415,1.254,0.65c0.411,0.236,0.776,0.515,1.098,0.836
		c0.321,0.322,0.581,0.701,0.777,1.138C258.37,170.446,258.469,170.962,258.469,171.559z"/>
	<path fill="#FFFFFF" d="M265.574,175.774l-1.393,3.843c-0.046,0.124-0.165,0.218-0.354,0.284c-0.19,0.067-0.478,0.099-0.866,0.099
		c-0.202,0-0.364-0.01-0.488-0.03c-0.124-0.019-0.219-0.052-0.285-0.098c-0.065-0.046-0.102-0.109-0.11-0.186
		c-0.007-0.077,0.012-0.17,0.058-0.279l1.44-3.634c-0.07-0.031-0.135-0.081-0.197-0.151c-0.062-0.07-0.104-0.144-0.128-0.221
		l-3.727-9.985c-0.062-0.163-0.093-0.29-0.093-0.383s0.031-0.167,0.093-0.221c0.062-0.054,0.163-0.091,0.302-0.11
		c0.139-0.02,0.325-0.03,0.557-0.03s0.414,0.006,0.546,0.017c0.132,0.013,0.236,0.034,0.313,0.064s0.133,0.075,0.169,0.134
		c0.034,0.057,0.071,0.137,0.11,0.238l2.984,8.383h0.035l2.88-8.43c0.046-0.147,0.102-0.242,0.169-0.284
		c0.065-0.043,0.164-0.074,0.296-0.093c0.132-0.02,0.321-0.03,0.569-0.03c0.216,0,0.395,0.01,0.534,0.03
		c0.139,0.019,0.242,0.056,0.307,0.11c0.066,0.054,0.099,0.128,0.099,0.221c0,0.093-0.023,0.209-0.07,0.348L265.574,175.774z"/>
	<path fill="#FFFFFF" d="M277.917,172.639c0,0.534-0.099,1.01-0.296,1.428c-0.198,0.418-0.478,0.771-0.842,1.057
		s-0.797,0.503-1.3,0.65c-0.504,0.147-1.057,0.221-1.66,0.221c-0.372,0-0.725-0.028-1.063-0.088
		c-0.336-0.057-0.638-0.131-0.906-0.22c-0.266-0.09-0.493-0.183-0.679-0.279c-0.186-0.097-0.321-0.185-0.406-0.262
		s-0.147-0.186-0.186-0.325c-0.039-0.139-0.058-0.329-0.058-0.569c0-0.147,0.007-0.271,0.023-0.372s0.035-0.182,0.058-0.244
		s0.056-0.107,0.099-0.133c0.042-0.027,0.091-0.041,0.145-0.041c0.086,0,0.211,0.052,0.377,0.157
		c0.167,0.103,0.372,0.218,0.616,0.342c0.243,0.123,0.532,0.239,0.865,0.342c0.332,0.106,0.716,0.157,1.149,0.157
		c0.325,0,0.62-0.035,0.882-0.104c0.263-0.07,0.492-0.172,0.685-0.308c0.193-0.135,0.343-0.307,0.446-0.516
		c0.106-0.209,0.157-0.457,0.157-0.743c0-0.295-0.075-0.542-0.227-0.743c-0.15-0.202-0.349-0.379-0.597-0.534
		s-0.527-0.292-0.836-0.413c-0.309-0.119-0.629-0.245-0.958-0.377c-0.328-0.132-0.65-0.281-0.963-0.446
		c-0.315-0.167-0.594-0.37-0.842-0.61s-0.448-0.527-0.597-0.859c-0.152-0.333-0.227-0.731-0.227-1.196
		c0-0.411,0.079-0.803,0.238-1.179c0.159-0.375,0.397-0.704,0.715-0.986c0.318-0.283,0.715-0.51,1.19-0.68
		c0.477-0.17,1.032-0.255,1.667-0.255c0.279,0,0.557,0.023,0.836,0.07c0.279,0.046,0.53,0.104,0.755,0.174
		c0.225,0.07,0.416,0.145,0.574,0.227c0.159,0.08,0.279,0.152,0.361,0.214c0.08,0.062,0.135,0.116,0.163,0.163
		c0.026,0.046,0.046,0.098,0.057,0.157c0.013,0.057,0.023,0.129,0.036,0.214c0.011,0.085,0.017,0.19,0.017,0.313
		c0,0.132-0.006,0.246-0.017,0.342c-0.013,0.097-0.032,0.176-0.059,0.239c-0.026,0.062-0.059,0.107-0.098,0.133
		c-0.039,0.027-0.081,0.041-0.128,0.041c-0.07,0-0.17-0.042-0.302-0.128c-0.132-0.085-0.302-0.176-0.511-0.272
		c-0.209-0.097-0.455-0.188-0.737-0.273c-0.283-0.086-0.606-0.128-0.97-0.128c-0.325,0-0.611,0.037-0.859,0.11
		c-0.248,0.074-0.451,0.178-0.609,0.315c-0.159,0.135-0.279,0.296-0.361,0.481c-0.08,0.186-0.121,0.387-0.121,0.604
		c0,0.302,0.077,0.555,0.232,0.76c0.155,0.206,0.356,0.385,0.604,0.54c0.248,0.155,0.53,0.294,0.848,0.418s0.641,0.251,0.969,0.383
		c0.329,0.132,0.654,0.279,0.975,0.441c0.322,0.163,0.606,0.36,0.854,0.592c0.248,0.232,0.447,0.511,0.599,0.836
		C277.841,171.803,277.917,172.19,277.917,172.639z"/>
	<path fill="#FFFFFF" d="M285.824,174.717c0,0.225-0.016,0.402-0.046,0.534s-0.077,0.228-0.139,0.29s-0.155,0.12-0.279,0.174
		c-0.123,0.054-0.265,0.098-0.423,0.134c-0.159,0.034-0.327,0.063-0.506,0.087c-0.178,0.023-0.356,0.035-0.534,0.035
		c-0.542,0-1.006-0.072-1.393-0.214c-0.387-0.144-0.704-0.361-0.952-0.65c-0.248-0.291-0.427-0.659-0.539-1.104
		c-0.113-0.444-0.169-0.969-0.169-1.573v-6.107h-1.463c-0.116,0-0.209-0.062-0.279-0.186c-0.07-0.124-0.104-0.325-0.104-0.604
		c0-0.147,0.009-0.271,0.028-0.372c0.02-0.1,0.045-0.184,0.076-0.249c0.031-0.066,0.072-0.113,0.122-0.139
		c0.05-0.027,0.106-0.041,0.168-0.041h1.451v-2.485c0-0.054,0.014-0.104,0.04-0.151c0.027-0.046,0.078-0.087,0.152-0.122
		c0.073-0.034,0.172-0.059,0.296-0.075c0.124-0.016,0.279-0.023,0.464-0.023c0.193,0,0.353,0.007,0.476,0.023
		c0.124,0.016,0.221,0.041,0.29,0.075c0.07,0.036,0.12,0.076,0.151,0.122s0.046,0.097,0.046,0.151v2.485h2.682
		c0.062,0,0.116,0.014,0.163,0.041c0.046,0.026,0.087,0.073,0.122,0.139c0.034,0.065,0.059,0.149,0.075,0.249
		c0.016,0.1,0.023,0.225,0.023,0.372c0,0.279-0.035,0.48-0.104,0.604c-0.07,0.123-0.163,0.186-0.279,0.186h-2.682v5.829
		c0,0.72,0.107,1.263,0.32,1.632c0.212,0.367,0.593,0.551,1.143,0.551c0.178,0,0.337-0.017,0.476-0.053
		c0.139-0.034,0.263-0.071,0.372-0.11s0.202-0.076,0.279-0.11c0.077-0.036,0.147-0.053,0.209-0.053c0.039,0,0.076,0.009,0.11,0.03
		c0.036,0.019,0.062,0.056,0.082,0.11c0.019,0.054,0.036,0.128,0.052,0.221C285.817,174.462,285.824,174.578,285.824,174.717z"/>
	<path fill="#FFFFFF" d="M297.017,169.806c0,0.302-0.076,0.517-0.228,0.644c-0.151,0.129-0.324,0.192-0.518,0.192h-6.882
		c0,0.581,0.058,1.103,0.175,1.567c0.116,0.464,0.31,0.863,0.583,1.196c0.272,0.332,0.627,0.588,1.062,0.766
		c0.436,0.178,0.969,0.267,1.599,0.267c0.497,0,0.94-0.041,1.33-0.121c0.388-0.082,0.725-0.173,1.009-0.273
		c0.284-0.1,0.517-0.191,0.7-0.273c0.183-0.08,0.321-0.121,0.415-0.121c0.054,0,0.102,0.014,0.146,0.041
		c0.042,0.026,0.075,0.068,0.099,0.121c0.023,0.054,0.04,0.13,0.052,0.227c0.012,0.096,0.018,0.214,0.018,0.354
		c0,0.1-0.004,0.188-0.012,0.261c-0.007,0.074-0.017,0.139-0.03,0.198c-0.011,0.057-0.031,0.11-0.057,0.156
		c-0.027,0.046-0.062,0.091-0.106,0.133c-0.042,0.043-0.168,0.113-0.377,0.209c-0.209,0.097-0.48,0.192-0.813,0.285
		c-0.332,0.093-0.718,0.176-1.156,0.249c-0.437,0.074-0.904,0.111-1.399,0.111c-0.859,0-1.612-0.12-2.258-0.36
		c-0.647-0.24-1.191-0.596-1.632-1.068s-0.774-1.064-0.999-1.776s-0.337-1.54-0.337-2.485c0-0.898,0.116-1.705,0.348-2.42
		c0.232-0.717,0.567-1.324,1.004-1.824c0.438-0.498,0.966-0.882,1.585-1.148c0.62-0.268,1.312-0.401,2.078-0.401
		c0.82,0,1.519,0.132,2.095,0.395c0.577,0.263,1.051,0.617,1.423,1.062c0.372,0.445,0.644,0.968,0.819,1.569
		c0.173,0.6,0.261,1.24,0.261,1.921v0.346L297.017,169.806L297.017,169.806z M295.09,169.237c0.023-1.006-0.201-1.795-0.671-2.369
		c-0.472-0.573-1.171-0.859-2.097-0.859c-0.475,0-0.892,0.089-1.25,0.267c-0.359,0.178-0.659,0.414-0.9,0.708
		c-0.241,0.295-0.427,0.637-0.56,1.027c-0.132,0.392-0.206,0.8-0.222,1.225h5.7L295.09,169.237L295.09,169.237z"/>
	<path fill="#FFFFFF" d="M315.432,175.483c0,0.062-0.016,0.114-0.046,0.157c-0.031,0.042-0.081,0.079-0.151,0.11
		s-0.167,0.054-0.29,0.07c-0.124,0.016-0.279,0.023-0.464,0.023c-0.193,0-0.353-0.007-0.476-0.023
		c-0.124-0.016-0.223-0.039-0.296-0.07c-0.074-0.031-0.127-0.068-0.157-0.11c-0.031-0.043-0.046-0.095-0.046-0.157v-6.351
		c0-0.441-0.039-0.843-0.116-1.208c-0.077-0.364-0.202-0.678-0.372-0.94s-0.387-0.464-0.65-0.604
		c-0.263-0.139-0.573-0.209-0.929-0.209c-0.441,0-0.885,0.17-1.329,0.511c-0.445,0.341-0.935,0.84-1.469,1.498v7.303
		c0,0.062-0.016,0.114-0.046,0.157c-0.031,0.042-0.083,0.079-0.156,0.11c-0.074,0.031-0.173,0.054-0.297,0.07
		c-0.123,0.016-0.279,0.023-0.464,0.023c-0.178,0-0.33-0.007-0.459-0.023c-0.127-0.016-0.228-0.039-0.302-0.07
		c-0.073-0.031-0.123-0.068-0.15-0.11c-0.027-0.043-0.041-0.095-0.041-0.157v-6.351c0-0.441-0.042-0.843-0.128-1.208
		c-0.086-0.364-0.213-0.678-0.383-0.94c-0.17-0.263-0.385-0.464-0.645-0.604c-0.259-0.139-0.567-0.209-0.923-0.209
		c-0.441,0-0.887,0.17-1.335,0.511s-0.936,0.84-1.463,1.498v7.303c0,0.062-0.016,0.114-0.046,0.157
		c-0.031,0.042-0.081,0.079-0.151,0.11s-0.167,0.054-0.29,0.07c-0.124,0.016-0.283,0.023-0.476,0.023
		c-0.186,0-0.341-0.007-0.464-0.023c-0.123-0.016-0.223-0.039-0.296-0.07c-0.074-0.031-0.125-0.068-0.152-0.11
		c-0.026-0.043-0.04-0.095-0.04-0.157v-10.45c0-0.062,0.012-0.114,0.035-0.157c0.023-0.042,0.07-0.08,0.139-0.116
		c0.07-0.034,0.158-0.057,0.267-0.07c0.109-0.011,0.251-0.017,0.43-0.017c0.17,0,0.311,0.006,0.423,0.017
		c0.113,0.013,0.199,0.036,0.262,0.07c0.062,0.036,0.107,0.074,0.133,0.116c0.027,0.043,0.041,0.095,0.041,0.157v1.382
		c0.588-0.658,1.159-1.14,1.713-1.446c0.553-0.305,1.113-0.458,1.677-0.458c0.434,0,0.822,0.051,1.166,0.151
		c0.345,0.1,0.649,0.242,0.912,0.423c0.263,0.183,0.488,0.399,0.673,0.65c0.186,0.252,0.341,0.533,0.464,0.842
		c0.348-0.379,0.68-0.701,0.992-0.964c0.315-0.263,0.616-0.476,0.906-0.639c0.291-0.163,0.573-0.281,0.849-0.355
		c0.274-0.073,0.551-0.11,0.83-0.11c0.673,0,1.238,0.118,1.695,0.355c0.457,0.235,0.827,0.551,1.108,0.946
		c0.283,0.395,0.484,0.857,0.604,1.387c0.12,0.531,0.181,1.09,0.181,1.678v6.608L315.432,175.483L315.432,175.483z"/>
	<path fill="#FFFFFF" d="M332.419,161.608c0,0.147-0.007,0.274-0.023,0.383s-0.042,0.195-0.081,0.261s-0.083,0.115-0.134,0.146
		c-0.05,0.031-0.102,0.046-0.156,0.046h-5.504v5.109h5.202c0.054,0,0.107,0.014,0.156,0.04c0.051,0.027,0.095,0.072,0.134,0.134
		s0.065,0.145,0.081,0.25c0.016,0.103,0.023,0.238,0.023,0.4c0,0.147-0.007,0.273-0.023,0.377c-0.016,0.106-0.042,0.19-0.081,0.255
		c-0.039,0.066-0.083,0.116-0.134,0.152c-0.05,0.034-0.102,0.052-0.156,0.052h-5.202v6.258c0,0.054-0.016,0.107-0.046,0.156
		c-0.031,0.051-0.086,0.09-0.163,0.116c-0.077,0.027-0.178,0.051-0.302,0.07c-0.123,0.02-0.286,0.03-0.488,0.03
		c-0.186,0-0.344-0.009-0.476-0.03c-0.132-0.019-0.236-0.042-0.313-0.07c-0.077-0.026-0.132-0.065-0.163-0.116
		c-0.031-0.05-0.046-0.102-0.046-0.156v-13.91c0-0.302,0.079-0.513,0.239-0.633c0.158-0.119,0.326-0.179,0.505-0.179h6.758
		c0.054,0,0.107,0.016,0.156,0.046c0.051,0.031,0.095,0.081,0.134,0.151s0.065,0.16,0.081,0.273
		C332.412,161.332,332.419,161.461,332.419,161.608z"/>
	<path fill="#FFFFFF" d="M344.622,170.142c0,0.852-0.112,1.635-0.337,2.351c-0.225,0.717-0.559,1.334-1.005,1.852
		c-0.444,0.518-1.002,0.924-1.672,1.213c-0.669,0.291-1.445,0.436-2.327,0.436c-0.859,0-1.608-0.128-2.247-0.383
		c-0.638-0.255-1.171-0.627-1.596-1.115c-0.425-0.488-0.743-1.08-0.952-1.776c-0.209-0.697-0.314-1.486-0.314-2.369
		c0-0.852,0.111-1.635,0.33-2.351c0.222-0.717,0.554-1.334,0.999-1.852s1.001-0.921,1.667-1.208c0.666-0.286,1.444-0.43,2.334-0.43
		c0.859,0,1.609,0.128,2.246,0.383c0.64,0.255,1.172,0.627,1.597,1.115s0.745,1.08,0.957,1.776
		C344.516,168.482,344.622,169.267,344.622,170.142z M342.637,170.27c0-0.565-0.053-1.099-0.158-1.602s-0.28-0.945-0.521-1.324
		c-0.242-0.379-0.57-0.68-0.984-0.899c-0.414-0.222-0.93-0.331-1.546-0.331c-0.571,0-1.061,0.1-1.47,0.302
		c-0.411,0.202-0.748,0.486-1.013,0.853c-0.266,0.368-0.463,0.803-0.592,1.307s-0.193,1.052-0.193,1.649
		c0,0.573,0.053,1.11,0.158,1.614c0.106,0.503,0.281,0.943,0.527,1.318s0.576,0.673,0.99,0.893c0.414,0.222,0.93,0.331,1.546,0.331
		c0.563,0,1.05-0.1,1.465-0.302c0.414-0.202,0.754-0.483,1.019-0.848c0.266-0.364,0.461-0.797,0.586-1.3
		C342.575,171.427,342.637,170.874,342.637,170.27z"/>
	<path fill="#FFFFFF" d="M353.551,165.718c0,0.17-0.004,0.313-0.012,0.43c-0.007,0.116-0.023,0.207-0.046,0.273
		c-0.023,0.065-0.052,0.116-0.088,0.15c-0.034,0.036-0.082,0.053-0.145,0.053c-0.062,0-0.137-0.017-0.227-0.053
		c-0.089-0.034-0.189-0.07-0.302-0.103c-0.112-0.036-0.238-0.069-0.377-0.099c-0.139-0.031-0.29-0.046-0.453-0.046
		c-0.193,0-0.383,0.039-0.569,0.116s-0.381,0.205-0.586,0.383c-0.206,0.178-0.42,0.414-0.645,0.708
		c-0.225,0.294-0.472,0.654-0.743,1.08v6.874c0,0.062-0.016,0.114-0.046,0.157c-0.031,0.042-0.081,0.079-0.151,0.11
		s-0.167,0.054-0.29,0.07c-0.124,0.016-0.283,0.023-0.476,0.023c-0.186,0-0.341-0.007-0.464-0.023
		c-0.124-0.016-0.223-0.039-0.296-0.07c-0.074-0.031-0.125-0.068-0.152-0.11c-0.026-0.043-0.04-0.095-0.04-0.157v-10.45
		c0-0.062,0.012-0.114,0.035-0.157c0.023-0.042,0.07-0.08,0.139-0.116c0.07-0.034,0.158-0.057,0.267-0.07
		c0.109-0.011,0.251-0.017,0.43-0.017c0.17,0,0.311,0.006,0.423,0.017c0.113,0.013,0.199,0.036,0.262,0.07
		c0.062,0.036,0.107,0.074,0.133,0.116c0.027,0.043,0.041,0.095,0.041,0.157v1.521c0.286-0.418,0.555-0.759,0.807-1.022
		c0.251-0.263,0.489-0.471,0.714-0.621c0.225-0.152,0.448-0.255,0.667-0.315c0.222-0.057,0.443-0.087,0.668-0.087
		c0.1,0,0.214,0.006,0.343,0.017c0.127,0.013,0.261,0.034,0.4,0.064c0.139,0.031,0.265,0.065,0.377,0.105
		c0.113,0.039,0.192,0.077,0.239,0.116c0.046,0.039,0.077,0.076,0.093,0.11c0.016,0.036,0.03,0.08,0.04,0.134
		c0.013,0.054,0.02,0.134,0.023,0.238C353.549,165.4,353.551,165.54,353.551,165.718z"/>
	<path fill="#FFFFFF" d="M369.4,171.559c0,0.704-0.13,1.331-0.389,1.881s-0.619,1.016-1.079,1.399
		c-0.461,0.384-1.003,0.672-1.626,0.866c-0.624,0.193-1.295,0.29-2.015,0.29c-0.503,0-0.97-0.042-1.399-0.128
		c-0.431-0.085-0.813-0.19-1.151-0.313c-0.336-0.124-0.619-0.251-0.847-0.383c-0.229-0.132-0.387-0.244-0.477-0.337
		c-0.089-0.093-0.154-0.211-0.196-0.354c-0.043-0.144-0.064-0.336-0.064-0.575c0-0.17,0.007-0.311,0.023-0.423
		c0.016-0.113,0.039-0.204,0.07-0.273c0.031-0.07,0.07-0.118,0.116-0.145c0.046-0.027,0.1-0.041,0.163-0.041
		c0.109,0,0.261,0.065,0.459,0.197c0.196,0.132,0.451,0.274,0.76,0.43c0.309,0.155,0.683,0.3,1.121,0.436
		c0.437,0.135,0.942,0.203,1.515,0.203c0.434,0,0.831-0.058,1.19-0.174c0.361-0.116,0.67-0.281,0.929-0.493
		c0.26-0.213,0.459-0.475,0.598-0.784c0.139-0.309,0.209-0.662,0.209-1.057c0-0.425-0.097-0.79-0.29-1.091
		c-0.193-0.302-0.449-0.567-0.766-0.796c-0.318-0.228-0.68-0.437-1.085-0.627c-0.407-0.189-0.823-0.382-1.249-0.581
		c-0.425-0.196-0.84-0.416-1.242-0.656s-0.762-0.522-1.08-0.848c-0.318-0.325-0.575-0.706-0.772-1.144
		c-0.198-0.437-0.297-0.962-0.297-1.573c0-0.627,0.114-1.186,0.343-1.678c0.228-0.491,0.545-0.904,0.952-1.236
		c0.405-0.333,0.89-0.586,1.45-0.761c0.562-0.173,1.167-0.261,1.818-0.261c0.332,0,0.667,0.029,1.005,0.088
		c0.336,0.057,0.653,0.135,0.952,0.232c0.298,0.096,0.563,0.205,0.795,0.325c0.232,0.119,0.385,0.216,0.459,0.289
		c0.073,0.074,0.121,0.132,0.145,0.175c0.023,0.042,0.042,0.096,0.058,0.163c0.016,0.065,0.027,0.145,0.035,0.237
		c0.007,0.093,0.012,0.213,0.012,0.36c0,0.139-0.006,0.263-0.017,0.372c-0.013,0.109-0.03,0.199-0.053,0.272
		c-0.023,0.074-0.056,0.129-0.099,0.163c-0.042,0.036-0.091,0.053-0.145,0.053c-0.085,0-0.218-0.054-0.4-0.163
		c-0.183-0.109-0.405-0.23-0.668-0.365c-0.263-0.136-0.575-0.26-0.934-0.372c-0.361-0.113-0.765-0.169-1.214-0.169
		c-0.418,0-0.782,0.056-1.091,0.169c-0.309,0.112-0.565,0.261-0.766,0.447c-0.202,0.186-0.353,0.406-0.453,0.662
		c-0.1,0.255-0.151,0.527-0.151,0.813c0,0.418,0.097,0.778,0.29,1.08c0.193,0.302,0.451,0.569,0.772,0.801
		c0.322,0.232,0.687,0.445,1.098,0.639c0.411,0.193,0.829,0.389,1.254,0.586c0.425,0.198,0.843,0.415,1.254,0.65
		c0.411,0.236,0.776,0.515,1.098,0.836c0.321,0.322,0.581,0.701,0.777,1.138C369.302,170.446,369.4,170.962,369.4,171.559z"/>
	<path fill="#FFFFFF" d="M379.908,175.495c0,0.093-0.031,0.163-0.093,0.209c-0.062,0.046-0.147,0.081-0.255,0.104
		s-0.267,0.035-0.476,0.035c-0.202,0-0.362-0.012-0.482-0.035c-0.119-0.023-0.207-0.058-0.261-0.104s-0.081-0.116-0.081-0.209
		v-1.045c-0.457,0.488-0.966,0.867-1.526,1.138c-0.562,0.271-1.156,0.406-1.783,0.406c-0.55,0-1.047-0.072-1.491-0.214
		c-0.445-0.144-0.825-0.35-1.138-0.622c-0.315-0.271-0.557-0.604-0.733-0.999c-0.173-0.395-0.261-0.843-0.261-1.347
		c0-0.588,0.12-1.099,0.36-1.533s0.585-0.794,1.033-1.08s0.999-0.501,1.649-0.644c0.65-0.144,1.382-0.215,2.194-0.215h1.44v-0.813
		c0-0.402-0.042-0.759-0.128-1.068c-0.086-0.309-0.223-0.567-0.413-0.773c-0.189-0.205-0.435-0.359-0.737-0.464
		c-0.302-0.103-0.673-0.156-1.115-0.156c-0.472,0-0.896,0.056-1.271,0.169c-0.376,0.112-0.705,0.235-0.988,0.372
		c-0.282,0.135-0.518,0.259-0.707,0.372c-0.19,0.112-0.331,0.168-0.424,0.168c-0.062,0-0.116-0.016-0.163-0.046
		s-0.087-0.077-0.122-0.139c-0.034-0.062-0.059-0.141-0.075-0.237c-0.016-0.097-0.023-0.204-0.023-0.32
		c0-0.193,0.014-0.346,0.041-0.459c0.026-0.112,0.093-0.218,0.196-0.319c0.106-0.1,0.285-0.218,0.54-0.355
		c0.255-0.135,0.55-0.259,0.882-0.372c0.333-0.112,0.697-0.205,1.091-0.279c0.395-0.073,0.794-0.11,1.196-0.11
		c0.75,0,1.389,0.085,1.916,0.255c0.527,0.17,0.952,0.42,1.277,0.749c0.325,0.328,0.562,0.737,0.708,1.224
		c0.147,0.488,0.221,1.057,0.221,1.707v7.049L379.908,175.495L379.908,175.495z M378.004,170.723h-1.637
		c-0.527,0-0.983,0.044-1.37,0.134c-0.387,0.089-0.708,0.22-0.964,0.395c-0.255,0.173-0.443,0.382-0.564,0.627
		c-0.119,0.243-0.179,0.524-0.179,0.841c0,0.542,0.172,0.973,0.517,1.295c0.344,0.321,0.825,0.481,1.445,0.481
		c0.504,0,0.97-0.128,1.399-0.383c0.431-0.255,0.881-0.646,1.353-1.173L378.004,170.723L378.004,170.723z"/>
	<path fill="#FFFFFF" d="M392.297,164.731c0.232,0,0.391,0.052,0.476,0.157c0.086,0.103,0.128,0.257,0.128,0.458v10.136
		c0,0.062-0.016,0.114-0.046,0.157c-0.031,0.042-0.083,0.079-0.157,0.11c-0.073,0.031-0.172,0.054-0.296,0.07
		s-0.274,0.023-0.453,0.023c-0.193,0-0.353-0.007-0.476-0.023c-0.124-0.016-0.223-0.039-0.296-0.07
		c-0.074-0.031-0.127-0.068-0.157-0.11c-0.031-0.043-0.046-0.095-0.046-0.157v-9.161h-5.399v5.829c0,0.72,0.107,1.263,0.319,1.632
		c0.213,0.367,0.594,0.551,1.144,0.551c0.178,0,0.337-0.017,0.476-0.053c0.139-0.034,0.263-0.071,0.372-0.11s0.202-0.076,0.279-0.11
		c0.077-0.036,0.147-0.053,0.209-0.053c0.039,0,0.075,0.009,0.111,0.03c0.034,0.019,0.061,0.056,0.08,0.11
		c0.02,0.054,0.037,0.128,0.053,0.221c0.016,0.093,0.023,0.209,0.023,0.348c0,0.225-0.016,0.4-0.046,0.529
		c-0.031,0.127-0.077,0.224-0.139,0.289c-0.062,0.066-0.155,0.127-0.279,0.18s-0.265,0.098-0.424,0.134
		c-0.158,0.034-0.326,0.063-0.505,0.087c-0.178,0.023-0.356,0.035-0.534,0.035c-0.542,0-1.006-0.072-1.393-0.214
		c-0.387-0.144-0.704-0.361-0.952-0.65c-0.248-0.291-0.428-0.659-0.54-1.104c-0.112-0.444-0.168-0.969-0.168-1.573v-6.107h-1.463
		c-0.116,0-0.209-0.062-0.279-0.186c-0.07-0.124-0.104-0.325-0.104-0.604c0-0.147,0.01-0.271,0.03-0.372
		c0.019-0.1,0.044-0.184,0.075-0.249c0.031-0.066,0.072-0.113,0.121-0.139c0.051-0.027,0.107-0.041,0.169-0.041h1.451v-2.485
		c0-0.054,0.014-0.104,0.041-0.151c0.026-0.046,0.077-0.087,0.15-0.122c0.074-0.034,0.173-0.059,0.297-0.075
		c0.124-0.016,0.279-0.023,0.464-0.023c0.193,0,0.353,0.007,0.476,0.023c0.124,0.016,0.221,0.041,0.29,0.075
		c0.07,0.036,0.12,0.076,0.151,0.122s0.046,0.097,0.046,0.151v2.485L392.297,164.731L392.297,164.731z M393.122,161.504
		c0,0.449-0.085,0.755-0.255,0.917c-0.17,0.163-0.483,0.244-0.94,0.244c-0.449,0-0.757-0.079-0.924-0.237
		c-0.166-0.159-0.249-0.459-0.249-0.9c0-0.449,0.086-0.755,0.255-0.917s0.483-0.244,0.94-0.244c0.449,0,0.757,0.079,0.924,0.238
		C393.038,160.763,393.122,161.062,393.122,161.504z"/>
	<path fill="#FFFFFF" d="M403.014,172.639c0,0.534-0.099,1.01-0.296,1.428c-0.198,0.418-0.478,0.771-0.842,1.057
		s-0.797,0.503-1.3,0.65c-0.503,0.147-1.057,0.221-1.66,0.221c-0.372,0-0.725-0.028-1.063-0.088
		c-0.336-0.057-0.638-0.131-0.906-0.22c-0.266-0.09-0.493-0.183-0.679-0.279c-0.186-0.097-0.321-0.185-0.406-0.262
		s-0.147-0.186-0.186-0.325c-0.039-0.139-0.058-0.329-0.058-0.569c0-0.147,0.007-0.271,0.023-0.372
		c0.016-0.1,0.035-0.182,0.058-0.244s0.056-0.107,0.099-0.133c0.042-0.027,0.091-0.041,0.145-0.041c0.085,0,0.211,0.052,0.377,0.157
		c0.167,0.103,0.372,0.218,0.616,0.342c0.243,0.123,0.532,0.239,0.865,0.342c0.332,0.106,0.716,0.157,1.15,0.157
		c0.325,0,0.62-0.035,0.882-0.104c0.263-0.07,0.492-0.172,0.685-0.308c0.193-0.135,0.343-0.307,0.447-0.516
		c0.106-0.209,0.157-0.457,0.157-0.743c0-0.295-0.075-0.542-0.227-0.743c-0.15-0.202-0.349-0.379-0.597-0.534
		s-0.527-0.292-0.836-0.413c-0.309-0.119-0.629-0.245-0.958-0.377c-0.328-0.132-0.65-0.281-0.963-0.446
		c-0.315-0.167-0.594-0.37-0.842-0.61c-0.248-0.24-0.448-0.527-0.597-0.859c-0.152-0.333-0.227-0.731-0.227-1.196
		c0-0.411,0.079-0.803,0.237-1.179c0.159-0.375,0.397-0.704,0.715-0.986c0.318-0.283,0.715-0.51,1.19-0.68
		c0.477-0.17,1.032-0.255,1.667-0.255c0.279,0,0.557,0.023,0.836,0.07c0.279,0.046,0.53,0.104,0.755,0.174
		c0.225,0.07,0.416,0.145,0.574,0.227c0.159,0.08,0.279,0.152,0.361,0.214c0.08,0.062,0.135,0.116,0.163,0.163
		c0.026,0.046,0.046,0.098,0.057,0.157c0.013,0.057,0.023,0.129,0.036,0.214c0.011,0.085,0.017,0.19,0.017,0.313
		c0,0.132-0.006,0.246-0.017,0.342c-0.013,0.097-0.032,0.176-0.059,0.239c-0.026,0.062-0.059,0.107-0.098,0.133
		c-0.039,0.027-0.081,0.041-0.128,0.041c-0.07,0-0.17-0.042-0.302-0.128c-0.132-0.085-0.302-0.176-0.511-0.272
		c-0.209-0.097-0.455-0.188-0.737-0.273c-0.283-0.086-0.606-0.128-0.97-0.128c-0.325,0-0.611,0.037-0.859,0.11
		c-0.248,0.074-0.451,0.178-0.609,0.315c-0.159,0.135-0.279,0.296-0.361,0.481c-0.08,0.186-0.121,0.387-0.121,0.604
		c0,0.302,0.077,0.555,0.232,0.76c0.155,0.206,0.356,0.385,0.604,0.54s0.53,0.294,0.848,0.418s0.641,0.251,0.969,0.383
		c0.329,0.132,0.654,0.279,0.975,0.441c0.322,0.163,0.606,0.36,0.854,0.592c0.248,0.232,0.447,0.511,0.598,0.836
		C402.938,171.803,403.014,172.19,403.014,172.639z"/>
	<path fill="#FFFFFF" d="M411.258,160.737c0,0.147-0.007,0.265-0.023,0.354c-0.016,0.09-0.033,0.161-0.053,0.215
		c-0.019,0.054-0.044,0.091-0.075,0.11c-0.031,0.02-0.07,0.03-0.116,0.03c-0.054,0-0.121-0.017-0.204-0.053
		c-0.08-0.034-0.179-0.073-0.296-0.116c-0.116-0.042-0.253-0.08-0.412-0.116c-0.159-0.034-0.343-0.052-0.552-0.052
		c-0.286,0-0.53,0.046-0.731,0.139c-0.202,0.093-0.364,0.237-0.488,0.436c-0.124,0.196-0.213,0.452-0.267,0.766
		c-0.054,0.312-0.081,0.695-0.081,1.143v1.138h2.334c0.062,0,0.114,0.014,0.157,0.041c0.042,0.026,0.08,0.073,0.116,0.139
		c0.034,0.065,0.061,0.149,0.08,0.249c0.02,0.1,0.03,0.225,0.03,0.372c0,0.279-0.035,0.48-0.105,0.604
		c-0.07,0.123-0.163,0.186-0.279,0.186h-2.334v9.161c0,0.062-0.016,0.114-0.046,0.157c-0.031,0.042-0.083,0.079-0.156,0.11
		c-0.074,0.031-0.173,0.054-0.297,0.07c-0.123,0.016-0.279,0.023-0.464,0.023c-0.186,0-0.341-0.007-0.464-0.023
		c-0.124-0.016-0.223-0.039-0.297-0.07c-0.073-0.031-0.126-0.068-0.156-0.11c-0.031-0.043-0.046-0.095-0.046-0.157v-9.161h-1.475
		c-0.124,0-0.216-0.062-0.279-0.186c-0.062-0.124-0.093-0.325-0.093-0.604c0-0.147,0.007-0.271,0.023-0.372
		c0.016-0.1,0.039-0.184,0.07-0.249c0.031-0.066,0.07-0.113,0.116-0.139c0.046-0.027,0.1-0.041,0.163-0.041h1.475v-1.08
		c0-0.727,0.068-1.353,0.203-1.875c0.136-0.524,0.343-0.951,0.622-1.284c0.279-0.332,0.629-0.578,1.05-0.737
		c0.422-0.159,0.919-0.239,1.493-0.239c0.271,0,0.534,0.025,0.79,0.076c0.255,0.05,0.453,0.103,0.592,0.163
		c0.139,0.057,0.232,0.11,0.279,0.156c0.046,0.046,0.086,0.107,0.116,0.179c0.031,0.074,0.052,0.163,0.064,0.268
		C411.252,160.464,411.258,160.591,411.258,160.737z"/>
	<path fill="#FFFFFF" d="M420.199,175.495c0,0.093-0.031,0.163-0.093,0.209c-0.062,0.046-0.147,0.081-0.255,0.104
		c-0.109,0.023-0.267,0.035-0.476,0.035c-0.202,0-0.362-0.012-0.482-0.035c-0.119-0.023-0.207-0.058-0.261-0.104
		s-0.081-0.116-0.081-0.209v-1.045c-0.457,0.488-0.966,0.867-1.526,1.138c-0.562,0.271-1.156,0.406-1.783,0.406
		c-0.55,0-1.047-0.072-1.492-0.214c-0.445-0.144-0.825-0.35-1.138-0.622c-0.315-0.271-0.557-0.604-0.733-0.999
		c-0.173-0.395-0.261-0.843-0.261-1.347c0-0.588,0.12-1.099,0.36-1.533s0.585-0.794,1.033-1.08s0.999-0.501,1.649-0.644
		c0.65-0.144,1.382-0.215,2.194-0.215h1.44v-0.813c0-0.402-0.042-0.759-0.128-1.068c-0.085-0.309-0.223-0.567-0.413-0.773
		c-0.189-0.205-0.435-0.359-0.737-0.464c-0.302-0.103-0.673-0.156-1.115-0.156c-0.472,0-0.896,0.056-1.271,0.169
		c-0.376,0.112-0.705,0.235-0.988,0.372c-0.282,0.135-0.518,0.259-0.707,0.372c-0.19,0.112-0.331,0.168-0.424,0.168
		c-0.062,0-0.116-0.016-0.163-0.046c-0.046-0.031-0.087-0.077-0.122-0.139c-0.034-0.062-0.059-0.141-0.075-0.237
		c-0.016-0.097-0.023-0.204-0.023-0.32c0-0.193,0.014-0.346,0.041-0.459c0.026-0.112,0.093-0.218,0.196-0.319
		c0.106-0.1,0.285-0.218,0.54-0.355c0.255-0.135,0.55-0.259,0.882-0.372c0.332-0.112,0.697-0.205,1.091-0.279
		c0.395-0.073,0.794-0.11,1.196-0.11c0.751,0,1.389,0.085,1.916,0.255c0.527,0.17,0.952,0.42,1.277,0.749
		c0.325,0.328,0.562,0.737,0.708,1.224c0.147,0.488,0.221,1.057,0.221,1.707v7.049L420.199,175.495L420.199,175.495z
		 M418.294,170.723h-1.637c-0.527,0-0.983,0.044-1.37,0.134c-0.387,0.089-0.708,0.22-0.964,0.395
		c-0.255,0.173-0.443,0.382-0.564,0.627c-0.119,0.243-0.179,0.524-0.179,0.841c0,0.542,0.172,0.973,0.517,1.295
		c0.344,0.321,0.825,0.481,1.445,0.481c0.503,0,0.97-0.128,1.399-0.383c0.431-0.255,0.881-0.646,1.353-1.173L418.294,170.723
		L418.294,170.723z"/>
	<path fill="#FFFFFF" d="M431.229,173.893c0,0.132-0.004,0.246-0.012,0.342c-0.007,0.097-0.021,0.178-0.041,0.245
		c-0.019,0.065-0.042,0.124-0.07,0.173c-0.026,0.051-0.089,0.125-0.186,0.222c-0.096,0.096-0.261,0.216-0.493,0.359
		c-0.232,0.144-0.493,0.271-0.784,0.384c-0.289,0.112-0.605,0.203-0.946,0.272s-0.692,0.104-1.057,0.104
		c-0.75,0-1.417-0.123-1.997-0.372c-0.581-0.248-1.066-0.609-1.458-1.086c-0.391-0.475-0.688-1.06-0.893-1.752
		c-0.206-0.693-0.308-1.493-0.308-2.398c0-1.029,0.126-1.914,0.378-2.654c0.251-0.739,0.595-1.345,1.032-1.817
		c0.438-0.472,0.952-0.822,1.545-1.05c0.591-0.229,1.232-0.343,1.921-0.343c0.332,0,0.657,0.031,0.969,0.093
		c0.315,0.062,0.603,0.144,0.866,0.244s0.497,0.216,0.703,0.348c0.205,0.132,0.354,0.244,0.447,0.337s0.157,0.167,0.191,0.221
		c0.036,0.054,0.064,0.118,0.088,0.192c0.023,0.073,0.039,0.156,0.046,0.249c0.007,0.093,0.012,0.209,0.012,0.348
		c0,0.302-0.035,0.513-0.105,0.633c-0.07,0.119-0.155,0.179-0.255,0.179c-0.116,0-0.25-0.063-0.4-0.192
		c-0.152-0.127-0.343-0.268-0.575-0.423c-0.232-0.155-0.513-0.297-0.841-0.423c-0.329-0.129-0.719-0.192-1.167-0.192
		c-0.921,0-1.628,0.355-2.12,1.062c-0.491,0.709-0.737,1.736-0.737,3.083c0,0.673,0.063,1.264,0.192,1.77
		c0.127,0.508,0.315,0.931,0.563,1.272s0.552,0.594,0.911,0.761c0.361,0.166,0.773,0.249,1.237,0.249
		c0.441,0,0.829-0.07,1.161-0.209s0.621-0.292,0.866-0.458c0.243-0.167,0.449-0.318,0.614-0.454
		c0.167-0.135,0.297-0.203,0.389-0.203c0.054,0,0.1,0.016,0.139,0.046c0.039,0.031,0.072,0.083,0.098,0.156
		c0.027,0.074,0.046,0.167,0.059,0.279C431.223,173.604,431.229,173.737,431.229,173.893z"/>
	<path fill="#FFFFFF" d="M442.863,164.731c0.232,0,0.391,0.052,0.476,0.157c0.086,0.103,0.128,0.257,0.128,0.458v10.136
		c0,0.062-0.016,0.114-0.046,0.157c-0.031,0.042-0.083,0.079-0.156,0.11c-0.074,0.031-0.173,0.054-0.297,0.07
		s-0.274,0.023-0.453,0.023c-0.193,0-0.353-0.007-0.476-0.023c-0.123-0.016-0.223-0.039-0.297-0.07
		c-0.073-0.031-0.126-0.068-0.156-0.11c-0.031-0.043-0.046-0.095-0.046-0.157v-9.161h-5.399v5.829c0,0.72,0.107,1.263,0.32,1.632
		c0.212,0.367,0.593,0.551,1.143,0.551c0.178,0,0.337-0.017,0.476-0.053c0.139-0.034,0.263-0.071,0.372-0.11s0.202-0.076,0.279-0.11
		c0.077-0.036,0.147-0.053,0.209-0.053c0.039,0,0.076,0.009,0.11,0.03c0.036,0.019,0.062,0.056,0.082,0.11
		c0.019,0.054,0.036,0.128,0.052,0.221c0.016,0.093,0.023,0.209,0.023,0.348c0,0.225-0.016,0.4-0.046,0.529
		c-0.031,0.127-0.077,0.224-0.139,0.289c-0.062,0.066-0.155,0.127-0.279,0.18s-0.265,0.098-0.423,0.134
		c-0.159,0.034-0.327,0.063-0.506,0.087c-0.178,0.023-0.356,0.035-0.534,0.035c-0.541,0-1.006-0.072-1.393-0.214
		c-0.387-0.144-0.704-0.361-0.952-0.65c-0.248-0.291-0.427-0.659-0.539-1.104c-0.113-0.444-0.169-0.969-0.169-1.573v-6.107h-1.463
		c-0.116,0-0.209-0.062-0.279-0.186c-0.07-0.124-0.104-0.325-0.104-0.604c0-0.147,0.009-0.271,0.029-0.372
		c0.02-0.1,0.045-0.184,0.076-0.249c0.031-0.066,0.072-0.113,0.122-0.139c0.05-0.027,0.106-0.041,0.168-0.041h1.451v-2.485
		c0-0.054,0.014-0.104,0.04-0.151c0.027-0.046,0.078-0.087,0.152-0.122c0.073-0.034,0.172-0.059,0.296-0.075
		c0.123-0.016,0.279-0.023,0.464-0.023c0.193,0,0.353,0.007,0.476,0.023c0.123,0.016,0.221,0.041,0.29,0.075
		c0.07,0.036,0.12,0.076,0.151,0.122c0.031,0.046,0.046,0.097,0.046,0.151v2.485L442.863,164.731L442.863,164.731z M443.688,161.504
		c0,0.449-0.085,0.755-0.255,0.917c-0.17,0.163-0.483,0.244-0.94,0.244c-0.449,0-0.757-0.079-0.923-0.237
		c-0.167-0.159-0.25-0.459-0.25-0.9c0-0.449,0.086-0.755,0.255-0.917c0.17-0.163,0.483-0.244,0.94-0.244
		c0.449,0,0.757,0.079,0.923,0.238C443.604,160.763,443.688,161.062,443.688,161.504z"/>
	<path fill="#FFFFFF" d="M456.739,170.142c0,0.852-0.112,1.635-0.337,2.351c-0.225,0.717-0.559,1.334-1.005,1.852
		c-0.444,0.518-1.002,0.924-1.672,1.213c-0.669,0.291-1.445,0.436-2.327,0.436c-0.859,0-1.608-0.128-2.247-0.383
		c-0.638-0.255-1.171-0.627-1.596-1.115c-0.425-0.488-0.743-1.08-0.952-1.776c-0.209-0.697-0.313-1.486-0.313-2.369
		c0-0.852,0.111-1.635,0.33-2.351c0.222-0.717,0.554-1.334,0.999-1.852s1.001-0.921,1.667-1.208s1.444-0.43,2.334-0.43
		c0.859,0,1.609,0.128,2.246,0.383c0.64,0.255,1.172,0.627,1.597,1.115s0.745,1.08,0.957,1.776
		C456.632,168.482,456.739,169.267,456.739,170.142z M454.753,170.27c0-0.565-0.053-1.099-0.158-1.602s-0.28-0.945-0.521-1.324
		c-0.242-0.379-0.57-0.68-0.984-0.899c-0.414-0.222-0.93-0.331-1.546-0.331c-0.571,0-1.061,0.1-1.47,0.302
		c-0.411,0.202-0.748,0.486-1.013,0.853c-0.266,0.368-0.463,0.803-0.592,1.307c-0.129,0.503-0.193,1.052-0.193,1.649
		c0,0.573,0.053,1.11,0.158,1.614c0.106,0.503,0.281,0.943,0.527,1.318s0.576,0.673,0.99,0.893c0.414,0.222,0.93,0.331,1.546,0.331
		c0.563,0,1.05-0.1,1.465-0.302c0.414-0.202,0.754-0.483,1.019-0.848c0.266-0.364,0.461-0.797,0.586-1.3
		C454.691,171.427,454.753,170.874,454.753,170.27z"/>
	<path fill="#FFFFFF" d="M468.559,175.483c0,0.062-0.016,0.114-0.046,0.157c-0.031,0.042-0.081,0.079-0.151,0.11
		s-0.167,0.054-0.29,0.07c-0.124,0.016-0.279,0.023-0.464,0.023c-0.193,0-0.353-0.007-0.476-0.023
		c-0.124-0.016-0.221-0.039-0.29-0.07s-0.12-0.068-0.151-0.11c-0.031-0.043-0.046-0.095-0.046-0.157v-6.119
		c0-0.596-0.046-1.076-0.139-1.44c-0.093-0.364-0.228-0.678-0.406-0.94c-0.178-0.263-0.409-0.464-0.691-0.604
		c-0.282-0.139-0.609-0.209-0.981-0.209c-0.48,0-0.959,0.17-1.44,0.511s-0.983,0.84-1.509,1.498v7.303
		c0,0.062-0.016,0.114-0.046,0.157c-0.031,0.042-0.081,0.079-0.151,0.11s-0.167,0.054-0.29,0.07
		c-0.124,0.016-0.283,0.023-0.476,0.023c-0.186,0-0.341-0.007-0.464-0.023c-0.124-0.016-0.223-0.039-0.296-0.07
		c-0.074-0.031-0.125-0.068-0.152-0.11c-0.026-0.043-0.04-0.095-0.04-0.157v-10.45c0-0.062,0.012-0.114,0.035-0.157
		c0.023-0.042,0.07-0.08,0.139-0.116c0.07-0.034,0.158-0.057,0.267-0.07c0.109-0.011,0.251-0.017,0.43-0.017
		c0.17,0,0.311,0.006,0.423,0.017c0.113,0.013,0.2,0.036,0.262,0.07c0.062,0.036,0.107,0.074,0.133,0.116
		c0.027,0.043,0.041,0.095,0.041,0.157v1.382c0.588-0.658,1.175-1.14,1.76-1.446c0.584-0.305,1.174-0.458,1.77-0.458
		c0.697,0,1.283,0.118,1.76,0.355c0.475,0.235,0.86,0.551,1.155,0.946s0.505,0.857,0.633,1.387c0.127,0.531,0.191,1.167,0.191,1.911
		v6.373L468.559,175.483L468.559,175.483z"/>
</g>
<g>
	<g>
		<path fill="#FFFFFF" d="M471.411,106.394c0,0.084-0.005,0.157-0.014,0.219c-0.008,0.062-0.022,0.112-0.043,0.15
			c-0.019,0.037-0.044,0.065-0.073,0.083s-0.061,0.027-0.097,0.027h-2.418v7.455c0,0.035-0.008,0.066-0.027,0.093
			c-0.017,0.027-0.048,0.048-0.092,0.063c-0.045,0.015-0.103,0.029-0.177,0.04c-0.073,0.011-0.165,0.016-0.275,0.016
			c-0.106,0-0.197-0.006-0.273-0.016c-0.076-0.011-0.135-0.025-0.179-0.04c-0.045-0.016-0.076-0.037-0.094-0.063
			c-0.017-0.027-0.027-0.058-0.027-0.093v-7.455h-2.418c-0.035,0-0.067-0.009-0.096-0.027c-0.029-0.018-0.052-0.045-0.069-0.083
			s-0.032-0.088-0.043-0.15c-0.011-0.062-0.016-0.135-0.016-0.219s0.005-0.158,0.016-0.223c0.011-0.064,0.026-0.116,0.043-0.156
			s0.041-0.068,0.069-0.086c0.029-0.018,0.061-0.027,0.096-0.027h5.98c0.036,0,0.068,0.009,0.097,0.027s0.053,0.047,0.073,0.086
			c0.02,0.04,0.035,0.092,0.043,0.156C471.405,106.236,471.411,106.31,471.411,106.394z"/>
		<path fill="#FFFFFF" d="M482,114.327c0,0.035-0.008,0.066-0.027,0.093c-0.018,0.027-0.05,0.048-0.096,0.063
			c-0.046,0.015-0.104,0.029-0.175,0.04c-0.071,0.011-0.163,0.016-0.277,0.016c-0.105,0-0.195-0.006-0.27-0.016
			c-0.076-0.011-0.135-0.025-0.178-0.04c-0.044-0.016-0.075-0.037-0.093-0.063c-0.018-0.027-0.028-0.058-0.028-0.093v-7.488h-0.012
			l-3.03,7.521c-0.014,0.031-0.033,0.058-0.057,0.08c-0.025,0.022-0.059,0.041-0.106,0.057c-0.046,0.015-0.101,0.027-0.166,0.033
			c-0.064,0.007-0.141,0.01-0.229,0.01c-0.094,0-0.174-0.005-0.239-0.013c-0.067-0.009-0.123-0.021-0.167-0.037
			c-0.044-0.015-0.079-0.034-0.103-0.056c-0.025-0.022-0.041-0.047-0.049-0.073l-2.897-7.521h-0.007v7.488
			c0,0.035-0.009,0.066-0.028,0.093c-0.018,0.027-0.05,0.048-0.096,0.063c-0.045,0.015-0.104,0.029-0.178,0.04
			c-0.073,0.011-0.167,0.016-0.28,0.016c-0.109,0-0.2-0.006-0.274-0.016c-0.073-0.011-0.131-0.025-0.175-0.04
			c-0.043-0.016-0.073-0.037-0.089-0.063c-0.015-0.027-0.023-0.058-0.023-0.093v-7.906c0-0.186,0.049-0.319,0.148-0.399
			s0.21-0.12,0.331-0.12h0.701c0.144,0,0.27,0.013,0.378,0.04c0.107,0.027,0.202,0.068,0.283,0.126s0.148,0.131,0.202,0.219
			c0.054,0.088,0.101,0.193,0.142,0.312l2.457,6.225h0.034l2.558-6.205c0.049-0.133,0.103-0.246,0.161-0.339
			s0.123-0.167,0.192-0.222c0.07-0.056,0.147-0.096,0.233-0.12c0.086-0.025,0.185-0.037,0.297-0.037h0.735
			c0.067,0,0.132,0.01,0.193,0.03c0.06,0.02,0.112,0.051,0.155,0.093c0.042,0.042,0.077,0.096,0.104,0.159
			c0.027,0.064,0.04,0.143,0.04,0.236v7.907L482,114.327L482,114.327z"/>
	</g>
</g>
<g>
	<polygon fill="#0095DA" points="137.935,82.241 161.049,42.449 162.101,40.639 164.174,40.639 210.013,40.639 212.07,40.639 
		213.123,42.435 236.238,81.837 237.3,83.648 236.266,85.456 224.898,105.339 216.567,105.339 228.955,83.674 207.957,47.878 
		166.247,47.878 145.244,84.036 157.806,105.339 149.418,105.339 137.949,85.889 136.875,84.067 	"/>
	<polygon fill="#0095DA" points="1.06,82.241 24.174,42.449 25.226,40.639 27.299,40.639 73.138,40.639 75.195,40.639 
		76.249,42.435 99.363,81.837 100.425,83.648 99.391,85.456 88.023,105.339 79.693,105.339 92.08,83.674 71.082,47.878 
		29.372,47.878 8.369,84.036 20.931,105.339 12.543,105.339 1.074,85.889 0,84.067 	"/>
	<polygon fill="#0095DA" points="69.494,41.602 92.608,1.81 93.66,0 95.733,0 141.573,0 143.63,0 144.683,1.796 167.797,41.198 
		168.859,43.009 167.825,44.817 156.457,64.699 148.127,64.699 160.514,43.034 139.516,7.239 97.807,7.239 76.804,43.397 
		89.365,64.699 80.977,64.699 69.508,45.25 68.434,43.428 	"/>
	<polygon fill="#0095DA" points="69.494,45.108 92.608,84.9 93.66,86.71 95.733,86.71 141.573,86.71 143.63,86.71 144.683,84.914 
		167.797,45.512 168.859,43.701 167.825,41.893 156.457,22.011 148.127,22.011 160.514,43.676 139.516,79.471 97.807,79.471 
		76.804,43.313 89.365,22.011 80.977,22.011 69.508,41.46 68.434,43.282 	"/>
</g>
</svg>
